<svg xmlns="http://www.w3.org/2000/svg" xmlns:xlink="http://www.w3.org/1999/xlink" viewBox="0 0 750 500"><defs><style>.cls-1{fill:none;}.cls-2{isolation:isolate;}.cls-3{fill:#fff;}.cls-4{clip-path:url(#clip-path);}.cls-5{fill:#e9cd76;}.cls-10,.cls-6{fill:#4157a3;}.cls-7{fill:#7b3f85;}.cls-8{fill:#be414e;}.cls-9{mix-blend-mode:multiply;}.cls-10{stroke:#4f22ff;stroke-miterlimit:10;}</style><clipPath id="clip-path"><rect class="cls-1" width="750" height="500"/></clipPath></defs><g class="cls-2"><g id="BACKGROUND"><rect class="cls-3" width="750" height="500"/></g><g id="OBJECTS"><g class="cls-4"><circle class="cls-5" cx="710.82" cy="183.44" r="111.59" transform="translate(78.48 556.35) rotate(-45)"/><circle class="cls-5" cx="236.61" cy="188.22" r="111.59" transform="translate(-63.79 222.43) rotate(-45)"/><rect class="cls-6" x="437" y="10.67" width="159.58" height="5.32" transform="translate(99.13 -291.32) rotate(34.63)"/><rect class="cls-6" x="428.56" y="22.89" width="159.58" height="5.32" transform="translate(104.58 -284.35) rotate(34.63)"/><rect class="cls-6" x="420.11" y="35.12" width="159.58" height="5.32" transform="translate(110.03 -277.39) rotate(34.63)"/><rect class="cls-6" x="411.67" y="47.35" width="159.58" height="5.32" transform="translate(115.48 -270.42) rotate(34.63)"/><rect class="cls-6" x="403.22" y="59.58" width="159.58" height="5.32" transform="translate(120.94 -263.46) rotate(34.63)"/><rect class="cls-6" x="394.78" y="71.81" width="159.58" height="5.32" transform="translate(126.39 -256.49) rotate(34.63)"/><rect class="cls-6" x="386.34" y="84.03" width="159.58" height="5.32" transform="translate(131.84 -249.53) rotate(34.63)"/><rect class="cls-6" x="377.89" y="96.26" width="159.58" height="5.32" transform="translate(137.29 -242.56) rotate(34.63)"/><rect class="cls-6" x="369.45" y="108.49" width="159.58" height="5.32" transform="translate(142.75 -235.6) rotate(34.63)"/><path class="cls-7" d="M519.07,193.73a73.72,73.72,0,0,1-16.6-102.81L462.74,62.24A122.64,122.64,0,0,0,661.61,205.81l-39.72-28.68A73.73,73.73,0,0,1,519.07,193.73Z"/><path class="cls-5" d="M342.93-153.7l-37.18,31.91a73.73,73.73,0,0,1-7.92,103.85A73.73,73.73,0,0,1,194-25.86L156.81,6.06A122.65,122.65,0,0,0,329.75,19.24,122.65,122.65,0,0,0,342.93-153.7Z"/><path class="cls-8" d="M264.66,127.81l-45.47-18.27A73.64,73.64,0,1,1,82.52,54.64L37.06,36.38a122.64,122.64,0,1,0,227.6,91.43Z"/><path class="cls-6" d="M449.23,375.45l26,41.52a73.64,73.64,0,0,1,78.19,124.82l26,41.52A122.64,122.64,0,1,0,449.23,375.45Z"/><circle cx="534.38" cy="266.01" r="33.64"/><circle class="cls-6" cx="228.97" cy="468.48" r="111.59" transform="translate(-264.2 299.12) rotate(-45)"/><path class="cls-5" d="M97,275.46l-42.16,25A73.73,73.73,0,0,1,29,401.3,73.72,73.72,0,0,1-71.93,375.43l-42.17,25a122.64,122.64,0,0,0,168,43.08A122.64,122.64,0,0,0,97,275.46Z"/><rect class="cls-5" x="237.87" y="365.37" width="159.58" height="5.32" transform="translate(-143.95 215.5) rotate(-30.92)"/><rect class="cls-5" x="245.5" y="378.11" width="159.58" height="5.32" transform="translate(-149.42 221.23) rotate(-30.92)"/><rect class="cls-5" x="253.14" y="390.86" width="159.58" height="5.32" transform="translate(-154.88 226.96) rotate(-30.92)"/><rect class="cls-5" x="260.77" y="403.61" width="159.58" height="5.32" transform="translate(-160.35 232.7) rotate(-30.92)"/><rect class="cls-5" x="268.41" y="416.36" width="159.58" height="5.32" transform="translate(-165.81 238.43) rotate(-30.92)"/><rect class="cls-5" x="276.04" y="429.11" width="159.58" height="5.32" transform="translate(-171.28 244.17) rotate(-30.92)"/><rect class="cls-5" x="283.68" y="441.86" width="159.58" height="5.32" transform="translate(-176.74 249.9) rotate(-30.92)"/><rect class="cls-5" x="291.31" y="454.61" width="159.58" height="5.32" transform="translate(-182.21 255.64) rotate(-30.92)"/><rect class="cls-5" x="298.95" y="467.36" width="159.58" height="5.32" transform="translate(-187.68 261.37) rotate(-30.92)"/><rect class="cls-5" x="-94.05" y="109.11" width="159.58" height="5.32" transform="translate(-15.56 -0.9) rotate(-7.93)"/><rect class="cls-5" x="-92" y="123.82" width="159.58" height="5.32" transform="translate(-17.58 -0.47) rotate(-7.93)"/><rect class="cls-5" x="-89.95" y="138.54" width="159.58" height="5.32" transform="translate(-19.59 -0.05) rotate(-7.93)"/><rect class="cls-5" x="-87.9" y="153.26" width="159.58" height="5.32" transform="translate(-21.6 0.37) rotate(-7.93)"/><rect class="cls-5" x="-85.85" y="167.98" width="159.58" height="5.32" transform="translate(-23.61 0.8) rotate(-7.93)"/><rect class="cls-5" x="-83.8" y="182.7" width="159.58" height="5.32" transform="translate(-25.62 1.22) rotate(-7.93)"/><rect class="cls-5" x="-81.74" y="197.42" width="159.58" height="5.32" transform="translate(-27.64 1.65) rotate(-7.93)"/><rect class="cls-5" x="-79.69" y="212.13" width="159.58" height="5.32" transform="translate(-29.65 2.07) rotate(-7.93)"/><text/><rect class="cls-6" x="636.61" y="319.24" width="159.58" height="5.32" transform="translate(-37.58 101.97) rotate(-7.93)"/><rect class="cls-6" x="638.66" y="333.96" width="159.58" height="5.32" transform="matrix(0.99, -0.14, 0.14, 0.99, -39.59, 102.39)"/><rect class="cls-6" x="640.71" y="348.68" width="159.58" height="5.32" transform="translate(-41.6 102.82) rotate(-7.93)"/><rect class="cls-6" x="642.76" y="363.4" width="159.58" height="5.32" transform="translate(-43.61 103.24) rotate(-7.93)"/><rect class="cls-6" x="644.81" y="378.11" width="159.58" height="5.32" transform="translate(-45.62 103.67) rotate(-7.93)"/><rect class="cls-6" x="646.86" y="392.83" width="159.58" height="5.32" transform="translate(-47.64 104.09) rotate(-7.93)"/><rect class="cls-6" x="648.91" y="407.55" width="159.58" height="5.32" transform="translate(-49.65 104.51) rotate(-7.93)"/><rect class="cls-6" x="650.97" y="422.27" width="159.58" height="5.32" transform="translate(-51.66 104.94) rotate(-7.93)"/><rect class="cls-6" x="653.02" y="436.99" width="159.58" height="5.32" transform="matrix(0.99, -0.14, 0.14, 0.99, -53.67, 105.36)"/><circle cx="114.1" cy="489.93" r="33.64" transform="translate(-194.42 92.61) rotate(-24.72)"/><circle cx="156.81" r="33.64"/><line class="cls-10" x1="626.17" y1="31.89" x2="626.17" y2="38.34"/><line class="cls-10" x1="629.39" y1="35.12" x2="622.95" y2="35.12"/><line class="cls-10" x1="644.68" y1="31.89" x2="644.68" y2="38.34"/><line class="cls-10" x1="647.9" y1="35.12" x2="641.45" y2="35.12"/><line class="cls-10" x1="663.19" y1="31.89" x2="663.19" y2="38.34"/><line class="cls-10" x1="666.41" y1="35.12" x2="659.96" y2="35.12"/><line class="cls-10" x1="681.7" y1="31.89" x2="681.7" y2="38.34"/><line class="cls-10" x1="684.92" y1="35.12" x2="678.47" y2="35.12"/><line class="cls-10" x1="700.21" y1="31.89" x2="700.21" y2="38.34"/><line class="cls-10" x1="703.43" y1="35.12" x2="696.98" y2="35.12"/><line class="cls-10" x1="626.17" y1="48.12" x2="626.17" y2="54.57"/><line class="cls-10" x1="629.39" y1="51.34" x2="622.95" y2="51.34"/><line class="cls-10" x1="644.68" y1="48.12" x2="644.68" y2="54.57"/><line class="cls-10" x1="647.9" y1="51.34" x2="641.45" y2="51.34"/><line class="cls-10" x1="663.19" y1="48.12" x2="663.19" y2="54.57"/><line class="cls-10" x1="666.41" y1="51.34" x2="659.96" y2="51.34"/><line class="cls-10" x1="681.7" y1="48.12" x2="681.7" y2="54.57"/><line class="cls-10" x1="684.92" y1="51.34" x2="678.47" y2="51.34"/><line class="cls-10" x1="700.21" y1="48.12" x2="700.21" y2="54.57"/><line class="cls-10" x1="703.43" y1="51.34" x2="696.98" y2="51.34"/><line class="cls-10" x1="626.17" y1="64.35" x2="626.17" y2="70.79"/><line class="cls-10" x1="629.39" y1="67.57" x2="622.95" y2="67.57"/><line class="cls-10" x1="644.68" y1="64.35" x2="644.68" y2="70.79"/><line class="cls-10" x1="647.9" y1="67.57" x2="641.45" y2="67.57"/><line class="cls-10" x1="663.19" y1="64.35" x2="663.19" y2="70.79"/><line class="cls-10" x1="666.41" y1="67.57" x2="659.96" y2="67.57"/><line class="cls-10" x1="681.7" y1="64.35" x2="681.7" y2="70.79"/><line class="cls-10" x1="684.92" y1="67.57" x2="678.47" y2="67.57"/><line class="cls-10" x1="700.21" y1="64.35" x2="700.21" y2="70.79"/><line class="cls-10" x1="703.43" y1="67.57" x2="696.98" y2="67.57"/><line class="cls-10" x1="626.17" y1="80.58" x2="626.17" y2="87.02"/><line class="cls-10" x1="629.39" y1="83.8" x2="622.95" y2="83.8"/><line class="cls-10" x1="644.68" y1="80.58" x2="644.68" y2="87.02"/><line class="cls-10" x1="647.9" y1="83.8" x2="641.45" y2="83.8"/><line class="cls-10" x1="663.19" y1="80.58" x2="663.19" y2="87.02"/><line class="cls-10" x1="666.41" y1="83.8" x2="659.96" y2="83.8"/><line class="cls-10" x1="681.7" y1="80.58" x2="681.7" y2="87.02"/><line class="cls-10" x1="684.92" y1="83.8" x2="678.47" y2="83.8"/><line class="cls-10" x1="700.21" y1="80.58" x2="700.21" y2="87.02"/><line class="cls-10" x1="703.43" y1="83.8" x2="696.98" y2="83.8"/><line class="cls-10" x1="11.57" y1="4.89" x2="11.57" y2="11.34"/><line class="cls-10" x1="14.79" y1="8.11" x2="8.35" y2="8.11"/><line class="cls-10" x1="30.08" y1="4.89" x2="30.08" y2="11.34"/><line class="cls-10" x1="33.3" y1="8.11" x2="26.86" y2="8.11"/><line class="cls-10" x1="48.59" y1="4.89" x2="48.59" y2="11.34"/><line class="cls-10" x1="51.81" y1="8.11" x2="45.37" y2="8.11"/><line class="cls-10" x1="67.1" y1="4.89" x2="67.1" y2="11.34"/><line class="cls-10" x1="70.32" y1="8.11" x2="63.88" y2="8.11"/><line class="cls-10" x1="85.61" y1="4.89" x2="85.61" y2="11.34"/><line class="cls-10" x1="88.83" y1="8.11" x2="82.39" y2="8.11"/><line class="cls-10" x1="11.57" y1="21.12" x2="11.57" y2="27.56"/><line class="cls-10" x1="14.79" y1="24.34" x2="8.35" y2="24.34"/><line class="cls-10" x1="30.08" y1="21.12" x2="30.08" y2="27.56"/><line class="cls-10" x1="33.3" y1="24.34" x2="26.86" y2="24.34"/><line class="cls-10" x1="48.59" y1="21.12" x2="48.59" y2="27.56"/><line class="cls-10" x1="51.81" y1="24.34" x2="45.37" y2="24.34"/><line class="cls-10" x1="67.1" y1="21.12" x2="67.1" y2="27.56"/><line class="cls-10" x1="70.32" y1="24.34" x2="63.88" y2="24.34"/><line class="cls-10" x1="85.61" y1="21.12" x2="85.61" y2="27.56"/><line class="cls-10" x1="88.83" y1="24.34" x2="82.39" y2="24.34"/><line class="cls-10" x1="21.48" y1="322.16" x2="21.48" y2="328.6"/><line class="cls-10" x1="24.7" y1="325.38" x2="18.25" y2="325.38"/><line class="cls-10" x1="39.99" y1="322.16" x2="39.99" y2="328.6"/><line class="cls-10" x1="43.21" y1="325.38" x2="36.76" y2="325.38"/><line class="cls-10" x1="58.5" y1="322.16" x2="58.5" y2="328.6"/><line class="cls-10" x1="61.72" y1="325.38" x2="55.27" y2="325.38"/><line class="cls-10" x1="77.01" y1="322.16" x2="77.01" y2="328.6"/><line class="cls-10" x1="80.23" y1="325.38" x2="73.78" y2="325.38"/><line class="cls-10" x1="95.51" y1="322.16" x2="95.51" y2="328.6"/><line class="cls-10" x1="98.74" y1="325.38" x2="92.29" y2="325.38"/><line class="cls-10" x1="21.48" y1="338.38" x2="21.48" y2="344.83"/><line class="cls-10" x1="24.7" y1="341.61" x2="18.25" y2="341.61"/><line class="cls-10" x1="39.99" y1="338.38" x2="39.99" y2="344.83"/><line class="cls-10" x1="43.21" y1="341.61" x2="36.76" y2="341.61"/><line class="cls-10" x1="58.5" y1="338.38" x2="58.5" y2="344.83"/><line class="cls-10" x1="61.72" y1="341.61" x2="55.27" y2="341.61"/><line class="cls-10" x1="77.01" y1="338.38" x2="77.01" y2="344.83"/><line class="cls-10" x1="80.23" y1="341.61" x2="73.78" y2="341.61"/><line class="cls-10" x1="95.51" y1="338.38" x2="95.51" y2="344.83"/><line class="cls-10" x1="98.74" y1="341.61" x2="92.29" y2="341.61"/><line class="cls-10" x1="21.48" y1="354.61" x2="21.48" y2="361.06"/><line class="cls-10" x1="24.7" y1="357.83" x2="18.25" y2="357.83"/><line class="cls-10" x1="39.99" y1="354.61" x2="39.99" y2="361.06"/><line class="cls-10" x1="43.21" y1="357.83" x2="36.76" y2="357.83"/><line class="cls-10" x1="58.5" y1="354.61" x2="58.5" y2="361.06"/><line class="cls-10" x1="61.72" y1="357.83" x2="55.27" y2="357.83"/><line class="cls-10" x1="77.01" y1="354.61" x2="77.01" y2="361.06"/><line class="cls-10" x1="80.23" y1="357.83" x2="73.78" y2="357.83"/><line class="cls-10" x1="95.51" y1="354.61" x2="95.51" y2="361.06"/><line class="cls-10" x1="98.74" y1="357.83" x2="92.29" y2="357.83"/><line class="cls-10" x1="21.48" y1="370.84" x2="21.48" y2="377.28"/><line class="cls-10" x1="24.7" y1="374.06" x2="18.25" y2="374.06"/><line class="cls-10" x1="39.99" y1="370.84" x2="39.99" y2="377.28"/><line class="cls-10" x1="43.21" y1="374.06" x2="36.76" y2="374.06"/><line class="cls-10" x1="58.5" y1="370.84" x2="58.5" y2="377.28"/><line class="cls-10" x1="61.72" y1="374.06" x2="55.27" y2="374.06"/><line class="cls-10" x1="77.01" y1="370.84" x2="77.01" y2="377.28"/><line class="cls-10" x1="80.23" y1="374.06" x2="73.78" y2="374.06"/><line class="cls-10" x1="95.51" y1="370.84" x2="95.51" y2="377.28"/><line class="cls-10" x1="98.74" y1="374.06" x2="92.29" y2="374.06"/><line class="cls-10" x1="471.33" y1="472.44" x2="471.33" y2="478.88"/><line class="cls-10" x1="474.55" y1="475.66" x2="468.11" y2="475.66"/><line class="cls-10" x1="489.84" y1="472.44" x2="489.84" y2="478.88"/><line class="cls-10" x1="493.06" y1="475.66" x2="486.62" y2="475.66"/><line class="cls-10" x1="508.35" y1="472.44" x2="508.35" y2="478.88"/><line class="cls-10" x1="511.57" y1="475.66" x2="505.13" y2="475.66"/><line class="cls-10" x1="526.86" y1="472.44" x2="526.86" y2="478.88"/><line class="cls-10" x1="530.08" y1="475.66" x2="523.64" y2="475.66"/><line class="cls-10" x1="545.37" y1="472.44" x2="545.37" y2="478.88"/><line class="cls-10" x1="548.59" y1="475.66" x2="542.15" y2="475.66"/><line class="cls-10" x1="471.33" y1="488.66" x2="471.33" y2="495.11"/><line class="cls-10" x1="474.55" y1="491.89" x2="468.11" y2="491.89"/><line class="cls-10" x1="489.84" y1="488.66" x2="489.84" y2="495.11"/><line class="cls-10" x1="493.06" y1="491.89" x2="486.62" y2="491.89"/><line class="cls-10" x1="508.35" y1="488.66" x2="508.35" y2="495.11"/><line class="cls-10" x1="511.57" y1="491.89" x2="505.13" y2="491.89"/><line class="cls-10" x1="526.86" y1="488.66" x2="526.86" y2="495.11"/><line class="cls-10" x1="530.08" y1="491.89" x2="523.64" y2="491.89"/><line class="cls-10" x1="545.37" y1="488.66" x2="545.37" y2="495.11"/><line class="cls-10" x1="548.59" y1="491.89" x2="542.15" y2="491.89"/><rect class="cls-7" x="144.51" y="303.05" width="32.84" height="32.84" transform="translate(273.04 -20.22) rotate(45)"/><rect class="cls-7" x="728.73" y="26.09" width="32.84" height="32.84" transform="translate(248.31 -514.45) rotate(45)"/><rect class="cls-7" x="572.61" y="360.71" width="32.84" height="32.84" transform="translate(439.2 -306.05) rotate(45)"/><rect class="cls-7" x="-11.56" y="147.57" width="32.84" height="32.84" transform="translate(117.39 44.6) rotate(45)"/><rect class="cls-7" x="381.8" y="483.58" width="32.84" height="32.84" transform="translate(470.19 -135.14) rotate(45)"/><rect class="cls-7" x="303.04" y="17.07" width="32.84" height="32.84" transform="translate(117.25 -216.08) rotate(45)"/><rect class="cls-7" x="733.58" y="274.57" width="32.84" height="32.84" transform="translate(425.43 -445.1) rotate(45)"/></g></g></g></svg>